# xmcd
#
# Track frame offsets:
#        150
#        13946
#        31249
#        51066
#        70229
#        84280
#        98742
#        116885
#        137965
#        154431
#        172823
#        187843
#        210564
#        229142
#        246580
#        263064
#        279035
#
# Disc length: 3963 seconds
#
# Revision: 0
# Processed by: cddbd v1.5.2PL0 Copyright (c) Steve Scherf et al.
# Submitted via: CDGFix 3.7e
#
DISCID=e60f7911
DTITLE=Various Artist - CBEP514502
DYEAR=2011
DGENRE=Karaoke
TTITLE0=Morgan, Craig - Still A Little Chicken Left On The Bone
TTITLE1=Thompson, Josh - Won't Be Lonely Long
TTITLE2=Aldean,  Jason With Kelly Clarkson - Don't You Wanna Stay
TTITLE3=Little Big Town - Kiss Goodbye
TTITLE4=Alabama - Are You Sure Hank done It This Way
TTITLE5=Sheperd, Ashton - Look It Up
TTITLE6=Rascal Flatts - I Won't Let Go
TTITLE7=Lewis, Aaron - Country Boy
TTITLE8=Janedear Girls - Shotgun Girl
TTITLE9=Allen, Gary - Kiss Me When I'm Down
TTITLE10=Shelton, Blake - Who Are You When I'm Not Looking
TTITLE11=Swift, Taylor - Back To December
TTITLE12=Urban, Keith - Without You
TTITLE13=Campbell, Craig - Family Man
TTITLE14=Eimes, LeAnn - Crazy Woman
TTITLE15=Eli Young Band - Crazy Girl
TTITLE16=Church, Eric - Homeboy
EXTD=
EXTT0=
EXTT1=
EXTT2=
EXTT3=
EXTT4=
EXTT5=
EXTT6=
EXTT7=
EXTT8=
EXTT9=
EXTT10=
EXTT11=
EXTT12=
EXTT13=
EXTT14=
EXTT15=
EXTT16=
PLAYORDER=
